<svg viewBox="0 0 24 24" fill="none" xmlns="http://www.w3.org/2000/svg">
    <path d="M12 22.6875C17.9025 22.6875 22.6875 17.9025 22.6875 12C22.6875 6.09746 17.9025 1.3125 12 1.3125C6.09746 1.3125 1.3125 6.09746 1.3125 12C1.3125 17.9025 6.09746 22.6875 12 22.6875Z"
          fill="#EAEAEA" fill-opacity="0.2" stroke="#EAEAEA" stroke-width="1.5"/>
    <path fill-rule="evenodd" clip-rule="evenodd"
          d="M6.89644 6.8999C7.09171 6.70003 7.40829 6.70003 7.60357 6.8999L12 11.3705L16.3964 6.8999C16.5917 6.70003 16.9083 6.70003 17.1035 6.8999C17.2988 7.09976 17.2988 7.4238 17.1035 7.62368L12.5303 12.2752C12.2374 12.575 11.7626 12.575 11.4697 12.2752L6.89644 7.62368C6.70118 7.4238 6.70118 7.09976 6.89644 6.8999Z"
          fill="#EAEAEA"/>
    <path fill-rule="evenodd" clip-rule="evenodd"
          d="M6.89644 17.1001C7.09171 17.2999 7.40829 17.2999 7.60357 17.1001L12 12.6295L16.3964 17.1001C16.5917 17.2999 16.9083 17.2999 17.1035 17.1001C17.2988 16.9003 17.2988 16.5762 17.1035 16.3763L12.5303 11.7248C12.2374 11.425 11.7626 11.425 11.4697 11.7248L6.89644 16.3763C6.70118 16.5762 6.70118 16.9003 6.89644 17.1001Z"
          fill="#EAEAEA"/>
</svg>
